<svg xmlns="http://www.w3.org/2000/svg" width="512" height="512" viewBox="0 0 512 512">
  <defs>
    <linearGradient id="bg" x1="0%" y1="0%" x2="100%" y2="100%">
      <stop offset="0%" style="stop-color:#0F0F0F"/>
      <stop offset="100%" style="stop-color:#050505"/>
    </linearGradient>
  </defs>
  
  <!-- Background -->
  <rect width="512" height="512" rx="80" fill="url(#bg)"/>
  
  <!-- Shield outline -->
  <path d="M256 60 L420 130 L420 280 C420 380 340 450 256 480 C172 450 92 380 92 280 L92 130 Z" 
        fill="none" 
        stroke="#007AFF" 
        stroke-width="20"
        stroke-linejoin="round"/>
  
  <!-- Inner shield -->
  <path d="M256 100 L380 155 L380 270 C380 350 315 405 256 430 C197 405 132 350 132 270 L132 155 Z" 
        fill="#007AFF" 
        opacity="0.2"/>
  
  <!-- Eye symbol -->
  <ellipse cx="256" cy="250" rx="80" ry="50" fill="none" stroke="#007AFF" stroke-width="12"/>
  <circle cx="256" cy="250" r="30" fill="#007AFF"/>
  <circle cx="266" cy="240" r="10" fill="#ffffff"/>
  
  <!-- Stealth lines -->
  <line x1="160" y1="330" x2="352" y2="330" stroke="#32D74B" stroke-width="8" stroke-linecap="round" opacity="0.8"/>
  <line x1="180" y1="360" x2="332" y2="360" stroke="#32D74B" stroke-width="6" stroke-linecap="round" opacity="0.6"/>
  <line x1="200" y1="385" x2="312" y2="385" stroke="#32D74B" stroke-width="4" stroke-linecap="round" opacity="0.4"/>
</svg>
